<svg width="41" height="40" viewBox="0 0 41 40" fill="none" xmlns="http://www.w3.org/2000/svg">
<path d="M27.0021 8.17427C26.0947 8.17331 25.2247 7.81242 24.5831 7.17081C23.9415 6.52919 23.5806 5.65925 23.5796 4.75187V0H8.2867C7.10214 0 5.9661 0.470565 5.12849 1.30818C4.29088 2.14579 3.82031 3.28183 3.82031 4.46639L3.82031 31.3909C3.82207 32.5743 4.29341 33.7086 5.13083 34.5448C5.96825 35.381 7.10329 35.8506 8.2867 35.8506H26.6435C27.5271 35.8508 28.3909 35.589 29.1257 35.0983C29.8604 34.6076 30.4332 33.91 30.7715 33.0938C30.9961 32.5518 31.1116 31.9709 31.1116 31.3842V8.16763L27.0021 8.17427Z" fill="#5570E8" fill-opacity="0.0823529"/>
<path d="M31.1114 8.17427H27.0018C26.0945 8.17331 25.2245 7.81242 24.5829 7.17081C23.9413 6.52919 23.5804 5.65925 23.5794 4.75187V0L31.1114 8.17427ZM34.3761 28.3817H13.6226C12.1504 28.3817 10.957 29.5751 10.957 31.0473V37.2349C10.957 38.7071 12.1504 39.9004 13.6226 39.9004H34.3761C35.8483 39.9004 37.0417 38.7071 37.0417 37.2349V31.0473C37.0417 29.5751 35.8483 28.3817 34.3761 28.3817Z" fill="#5570E8"/>
<path d="M17.6656 36.9493C17.0195 36.9493 16.5413 36.7954 16.2308 36.4879C15.9234 36.1775 15.7695 35.6993 15.7695 35.0532V33.1063C15.7695 32.4545 15.9234 31.9748 16.2309 31.6673C16.5385 31.3569 17.0138 31.2046 17.6572 31.2102H18.6814C19.2119 31.2102 19.6168 31.3202 19.8962 31.5403C20.1755 31.7576 20.3377 32.1018 20.3828 32.573C20.3997 32.6915 20.3772 32.7818 20.3151 32.8439C20.253 32.906 20.1627 32.937 20.0442 32.937C19.8298 32.937 19.7056 32.8185 19.6718 32.5815C19.6436 32.3219 19.5533 32.147 19.4009 32.0567C19.2514 31.9664 19.0115 31.9212 18.6814 31.9212H17.6572C17.3581 31.9184 17.1226 31.9523 16.9504 32.0228C16.7811 32.0934 16.6598 32.216 16.5865 32.3909C16.5159 32.5631 16.4806 32.8016 16.4806 33.1063V35.0532C16.4806 35.3551 16.5159 35.5921 16.5865 35.7642C16.6203 35.847 16.6703 35.9221 16.7335 35.9853C16.7967 36.0485 16.8719 36.0985 16.9546 36.1324C17.1267 36.2029 17.3637 36.2383 17.6656 36.2383H18.6814C19.0115 36.2383 19.2514 36.1931 19.4009 36.1028C19.5533 36.0097 19.6436 35.8348 19.6718 35.578C19.7056 35.341 19.8298 35.2225 20.0442 35.2225C20.1627 35.2225 20.253 35.2535 20.3151 35.3156C20.3772 35.3777 20.3997 35.468 20.3828 35.5865C20.3377 36.0605 20.1753 36.4061 19.8962 36.6233C19.617 36.8406 19.2119 36.9493 18.6814 36.9493H17.6656ZM23.3013 36.9493C22.8188 36.9493 22.4422 36.8519 22.1714 36.6572C21.9033 36.4625 21.7353 36.1621 21.6676 35.7558C21.6563 35.6316 21.6817 35.5385 21.7438 35.4764C21.8059 35.4144 21.8962 35.3833 22.0147 35.3833C22.1332 35.3833 22.2193 35.4115 22.2729 35.468C22.3294 35.5244 22.3674 35.6119 22.3871 35.7304C22.4294 35.9251 22.5197 36.059 22.658 36.1324C22.7991 36.2029 23.0135 36.2383 23.3013 36.2383H24.5202C24.8842 36.2383 25.1312 36.1734 25.261 36.0436C25.3936 35.9109 25.4598 35.6655 25.4598 35.3071C25.4598 34.9431 25.3921 34.6948 25.2567 34.5622C25.1212 34.4268 24.8758 34.3591 24.5202 34.3591H23.4706C22.9373 34.3591 22.541 34.2293 22.2814 33.9697C22.0246 33.7073 21.8962 33.3095 21.8962 32.7762C21.8962 32.2457 22.0231 31.852 22.2771 31.5953C22.5338 31.3385 22.9289 31.2102 23.4621 31.2102H24.4694C24.9181 31.2102 25.2694 31.3018 25.5234 31.4852C25.7802 31.6686 25.9423 31.9495 26.01 32.3275C26.027 32.4489 26.0044 32.542 25.9423 32.6069C25.8802 32.669 25.7871 32.7 25.663 32.7C25.5501 32.7 25.4655 32.6703 25.409 32.611C25.3526 32.5518 25.3159 32.4658 25.299 32.3529C25.2538 32.1865 25.1679 32.0736 25.0409 32.0143C24.9139 31.9523 24.7234 31.9212 24.4694 31.9212H23.4621C23.1236 31.9212 22.8965 31.9818 22.7808 32.1031C22.6651 32.2217 22.6072 32.4461 22.6072 32.7762C22.6072 33.1091 22.6665 33.3377 22.785 33.4618C22.9035 33.586 23.132 33.648 23.4706 33.648H24.5202C25.0761 33.648 25.4895 33.7835 25.7604 34.0543C26.0341 34.3252 26.1709 34.7428 26.1709 35.3071C26.1709 35.8686 26.0354 36.2834 25.7646 36.5514C25.4937 36.8167 25.0789 36.9493 24.5202 36.9493H23.3013ZM29.5304 36.9493C29.3836 36.9493 29.268 36.8562 29.1833 36.67L27.0925 31.7181C27.0502 31.6193 27.0389 31.5319 27.0587 31.4557C27.0784 31.3767 27.1433 31.3118 27.2534 31.261C27.4847 31.1453 27.6484 31.2046 27.7443 31.4388L29.7209 36.1197H29.4754L31.4011 31.4388C31.4942 31.2074 31.6578 31.1481 31.892 31.261C31.9908 31.3118 32.0515 31.3767 32.0741 31.4557C32.0995 31.5319 32.0924 31.6193 32.0529 31.7181L29.9451 36.67C29.8577 36.8562 29.7307 36.9493 29.5642 36.9493H29.5304Z" fill="white"/>
<path d="M23.5534 25.029H11.3791C10.3252 25.029 9.46875 23.9801 9.46875 22.6888V13.8606C9.46875 12.5709 10.3252 11.522 11.3791 11.522H23.5534C24.6073 11.522 25.4638 12.5709 25.4638 13.8606V22.6888C25.4638 23.9801 24.6073 25.029 23.5534 25.029ZM11.3791 12.717C10.8646 12.717 10.4447 13.2299 10.4447 13.8606V22.6888C10.4447 23.3195 10.8646 23.8323 11.3791 23.8323H23.5534C24.0679 23.8323 24.4862 23.3195 24.4862 22.6888V13.8606C24.4862 13.2299 24.0679 12.717 23.5534 12.717H11.3791Z" fill="#5570E8"/>
<path d="M24.9761 19.7128H9.95703V20.9094H24.9761V19.7128ZM24.9761 15.6099H9.95703V16.8065H24.9761V15.6099Z" fill="#5570E8"/>
<path d="M21.1325 12.1191H19.9358V24.4295H21.1325V12.1191ZM15.0014 12.1191H13.8047V24.4295H15.0014V12.1191Z" fill="#5570E8"/>
</svg>
