<svg width="10" height="10" viewBox="0 0 10 10" fill="none" xmlns="http://www.w3.org/2000/svg">
<g clip-path="url(#clip0_319_489)">
<path d="M5.00209 2.45789C4.66849 2.45784 4.33815 2.52351 4.02994 2.65114C3.72173 2.77878 3.44168 2.96588 3.20579 3.20177C2.96991 3.43766 2.7828 3.71771 2.65516 4.02592C2.52753 4.33413 2.46186 4.66447 2.46191 4.99807C2.46186 5.33166 2.52753 5.662 2.65516 5.97022C2.7828 6.27843 2.96991 6.55848 3.20579 6.79436C3.44168 7.03025 3.72173 7.21736 4.02994 7.34499C4.33815 7.47263 4.66849 7.5383 5.00209 7.53824C5.33568 7.5383 5.66602 7.47263 5.97424 7.34499C6.28245 7.21736 6.5625 7.03025 6.79838 6.79436C7.03427 6.55848 7.22138 6.27843 7.34902 5.97022C7.47665 5.662 7.54232 5.33166 7.54226 4.99807C7.54232 4.66447 7.47665 4.33413 7.34902 4.02592C7.22138 3.71771 7.03427 3.43766 6.79838 3.20177C6.5625 2.96588 6.28245 2.77878 5.97424 2.65114C5.66602 2.52351 5.33568 2.45784 5.00209 2.45789ZM5.00209 6.64683C4.67611 6.64675 4.35748 6.55002 4.08647 6.36886C3.81546 6.18771 3.60425 5.93027 3.47955 5.62909C3.35484 5.32791 3.32223 4.99651 3.38584 4.6768C3.44946 4.35709 3.60644 4.06342 3.83694 3.83292C4.06744 3.60242 4.36111 3.44544 4.68082 3.38182C5.00053 3.31821 5.33193 3.35082 5.63311 3.47553C5.93429 3.60023 6.19173 3.81144 6.37288 4.08245C6.55404 4.35346 6.65077 4.67209 6.65085 4.99807C6.65096 5.21462 6.60839 5.42906 6.52557 5.62915C6.44275 5.82924 6.32131 6.01104 6.16818 6.16416C6.01506 6.31728 5.83326 6.43873 5.63317 6.52155C5.43309 6.60437 5.21864 6.64694 5.00209 6.64683Z" fill="url(#paint0_linear_319_489)"/>
<path d="M7.04095 0.0811001C6.13015 0.0386125 3.87419 0.040675 2.96256 0.0811001C2.16149 0.118638 1.45487 0.3121 0.885211 0.881763C-0.0668391 1.83381 0.0548484 3.11669 0.0548484 4.9981C0.0548484 6.92365 -0.0524016 8.17683 0.885211 9.11444C1.84097 10.0698 3.14241 9.9448 5.00155 9.9448C6.90895 9.9448 7.5673 9.94604 8.24174 9.68493C9.15872 9.32894 9.8509 8.5093 9.91855 7.03709C9.96145 6.12587 9.95897 3.87033 9.91855 2.9587C9.83687 1.22084 8.90421 0.1669 7.04095 0.0811001ZM8.48264 8.48455C7.85852 9.10866 6.99269 9.05298 4.98959 9.05298C2.92709 9.05298 2.10002 9.0835 1.49654 8.47836C0.801473 7.7866 0.927286 6.67574 0.927286 4.9915C0.927286 2.71244 0.693398 1.0711 2.98071 0.95395C3.50624 0.935388 3.66092 0.9292 4.98381 0.9292L5.00237 0.941575C7.20059 0.941575 8.92525 0.7114 9.02879 2.9983C9.0523 3.52011 9.05766 3.67686 9.05766 4.99769C9.05725 7.03626 9.09602 7.86828 8.48264 8.48455Z" fill="url(#paint1_linear_319_489)"/>
<path d="M7.64242 2.95124C7.97025 2.95124 8.236 2.68549 8.236 2.35766C8.236 2.02983 7.97025 1.76407 7.64242 1.76407C7.31459 1.76407 7.04883 2.02983 7.04883 2.35766C7.04883 2.68549 7.31459 2.95124 7.64242 2.95124Z" fill="url(#paint2_linear_319_489)"/>
</g>
<defs>
<linearGradient id="paint0_linear_319_489" x1="4.94917" y1="2.27645" x2="2.80589" y2="3.94347" gradientUnits="userSpaceOnUse">
<stop stop-color="#8C57EA"/>
<stop offset="1" stop-color="#5570E8"/>
</linearGradient>
<linearGradient id="paint1_linear_319_489" x1="4.89668" y1="-0.303575" x2="0.720046" y2="2.94491" gradientUnits="userSpaceOnUse">
<stop stop-color="#8C57EA"/>
<stop offset="1" stop-color="#5570E8"/>
</linearGradient>
<linearGradient id="paint2_linear_319_489" x1="7.63005" y1="1.72167" x2="7.12921" y2="2.11122" gradientUnits="userSpaceOnUse">
<stop stop-color="#8C57EA"/>
<stop offset="1" stop-color="#5570E8"/>
</linearGradient>
<clipPath id="clip0_319_489">
<rect width="9.9" height="9.9" fill="white" transform="translate(0.0498047 0.0500031)"/>
</clipPath>
</defs>
</svg>
