<svg width="10" height="10" viewBox="0 0 10 10" fill="none" xmlns="http://www.w3.org/2000/svg">
<g clip-path="url(#clip0_319_496)">
<path d="M9.9498 9.95V6.32413C9.9498 4.54213 9.56618 3.18088 7.48718 3.18088C6.4848 3.18088 5.81655 3.72538 5.5443 4.24513H5.51955V3.34175H3.55193V9.95H5.60618V6.67063C5.60618 5.80438 5.76705 4.97525 6.8313 4.97525C7.88318 4.97525 7.89555 5.95288 7.89555 6.72013V9.93763H9.9498V9.95ZM0.21068 3.34175H2.26493V9.95H0.21068V3.34175ZM1.2378 0.0500031C0.58193 0.0500031 0.0498047 0.582128 0.0498047 1.238C0.0498047 1.89388 0.58193 2.43838 1.2378 2.43838C1.89368 2.43838 2.4258 1.89388 2.4258 1.238C2.4258 0.582128 1.89368 0.0500031 1.2378 0.0500031Z" fill="url(#paint0_linear_319_496)"/>
</g>
<defs>
<linearGradient id="paint0_linear_319_496" x1="4.89668" y1="-0.303568" x2="0.720103" y2="2.94493" gradientUnits="userSpaceOnUse">
<stop stop-color="#8C57EA"/>
<stop offset="1" stop-color="#5570E8"/>
</linearGradient>
<clipPath id="clip0_319_496">
<rect width="9.9" height="9.9" fill="white" transform="translate(0.0498047 0.0500031)"/>
</clipPath>
</defs>
</svg>
