<svg width="14" height="14" viewBox="0 0 14 14" fill="none" xmlns="http://www.w3.org/2000/svg">
<path d="M10.4999 4.17669C10.4649 4.17086 10.424 4.17086 10.389 4.17669C9.58405 4.14752 8.94238 3.48835 8.94238 2.67169C8.94238 1.83752 9.61321 1.16669 10.4474 1.16669C11.2815 1.16669 11.9524 1.84335 11.9524 2.67169C11.9465 3.48835 11.3049 4.14752 10.4999 4.17669Z" stroke="#475569" stroke-linecap="round" stroke-linejoin="round"/>
<path d="M9.89934 8.42339C10.6985 8.55755 11.5793 8.41755 12.1977 8.00339C13.0202 7.45505 13.0202 6.55672 12.1977 6.00839C11.5735 5.59422 10.681 5.45422 9.88184 5.59422" stroke="#475569" stroke-linecap="round" stroke-linejoin="round"/>
<path d="M3.48277 4.17669C3.51777 4.17086 3.55861 4.17086 3.59361 4.17669C4.39861 4.14752 5.04027 3.48835 5.04027 2.67169C5.04027 1.83752 4.36944 1.16669 3.53527 1.16669C2.70111 1.16669 2.03027 1.84335 2.03027 2.67169C2.03611 3.48835 2.67777 4.14752 3.48277 4.17669Z" stroke="#475569" stroke-linecap="round" stroke-linejoin="round"/>
<path d="M4.08318 8.42339C3.28401 8.55755 2.40318 8.41755 1.78484 8.00339C0.962344 7.45505 0.962344 6.55672 1.78484 6.00839C2.40901 5.59422 3.30151 5.45422 4.10068 5.59422" stroke="#475569" stroke-linecap="round" stroke-linejoin="round"/>
<path d="M6.99988 8.53417C6.96488 8.52834 6.92405 8.52834 6.88905 8.53417C6.08405 8.505 5.44238 7.84584 5.44238 7.02917C5.44238 6.195 6.11322 5.52417 6.94738 5.52417C7.78155 5.52417 8.45238 6.20084 8.45238 7.02917C8.44655 7.84584 7.80488 8.51084 6.99988 8.53417Z" stroke="#475569" stroke-linecap="round" stroke-linejoin="round"/>
<path d="M5.30242 10.3716C4.47992 10.92 4.47992 11.8183 5.30242 12.3666C6.23576 12.9908 7.76409 12.9908 8.69742 12.3666C9.51992 11.8183 9.51992 10.92 8.69742 10.3716C7.76992 9.75331 6.23576 9.75331 5.30242 10.3716Z" stroke="#475569" stroke-linecap="round" stroke-linejoin="round"/>
</svg>
