<svg width="20" height="21" viewBox="0 0 20 21" fill="none" xmlns="http://www.w3.org/2000/svg">
<path d="M7.49984 2.16666C5.3165 2.16666 3.5415 3.94166 3.5415 6.12499C3.5415 8.26666 5.2165 9.99999 7.39984 10.075C7.4665 10.0667 7.53317 10.0667 7.58317 10.075C7.59984 10.075 7.60817 10.075 7.62484 10.075C7.63317 10.075 7.63317 10.075 7.6415 10.075C9.77484 9.99999 11.4498 8.26666 11.4582 6.12499C11.4582 3.94166 9.68317 2.16666 7.49984 2.16666Z" fill="url(#paint0_linear_1_1223)"/>
<path d="M11.7333 12.2917C9.4083 10.7417 5.61663 10.7417 3.27497 12.2917C2.21663 13 1.6333 13.9583 1.6333 14.9833C1.6333 16.0083 2.21663 16.9583 3.26663 17.6583C4.4333 18.4417 5.96663 18.8333 7.49997 18.8333C9.0333 18.8333 10.5666 18.4417 11.7333 17.6583C12.7833 16.95 13.3666 16 13.3666 14.9667C13.3583 13.9417 12.7833 12.9917 11.7333 12.2917Z" fill="url(#paint1_linear_1_1223)"/>
<path d="M16.6583 6.61668C16.7916 8.23335 15.6416 9.65001 14.05 9.84168C14.0416 9.84168 14.0416 9.84168 14.0333 9.84168H14.0083C13.9583 9.84168 13.9083 9.84168 13.8666 9.85834C13.0583 9.90001 12.3166 9.64168 11.7583 9.16668C12.6166 8.40001 13.1083 7.25001 13.0083 6.00001C12.95 5.32501 12.7166 4.70835 12.3666 4.18335C12.6833 4.02501 13.05 3.92501 13.425 3.89168C15.0583 3.75001 16.5166 4.96668 16.6583 6.61668Z" fill="url(#paint2_linear_1_1223)"/>
<path d="M18.3249 14.325C18.2582 15.1333 17.7415 15.8333 16.8749 16.3083C16.0415 16.7667 14.9915 16.9833 13.9499 16.9583C14.5499 16.4167 14.8999 15.7417 14.9665 15.025C15.0499 13.9917 14.5582 13 13.5749 12.2083C13.0165 11.7667 12.3665 11.4167 11.6582 11.1583C13.4999 10.625 15.8165 10.9833 17.2415 12.1333C18.0082 12.75 18.3999 13.525 18.3249 14.325Z" fill="url(#paint3_linear_1_1223)"/>
<defs>
<linearGradient id="paint0_linear_1_1223" x1="7.41737" y1="1.88422" x2="4.08017" y2="4.48259" gradientUnits="userSpaceOnUse">
<stop stop-color="#8C57EA"/>
<stop offset="1" stop-color="#5570E8"/>
</linearGradient>
<linearGradient id="paint1_linear_1_1223" x1="7.37775" y1="10.854" x2="4.0719" y2="14.77" gradientUnits="userSpaceOnUse">
<stop stop-color="#8C57EA"/>
<stop offset="1" stop-color="#5570E8"/>
</linearGradient>
<linearGradient id="paint2_linear_1_1223" x1="14.1624" y1="3.66681" x2="11.8003" y2="5.17486" gradientUnits="userSpaceOnUse">
<stop stop-color="#8C57EA"/>
<stop offset="1" stop-color="#5570E8"/>
</linearGradient>
<linearGradient id="paint3_linear_1_1223" x1="14.9265" y1="10.7005" x2="12.3259" y2="12.9347" gradientUnits="userSpaceOnUse">
<stop stop-color="#8C57EA"/>
<stop offset="1" stop-color="#5570E8"/>
</linearGradient>
</defs>
</svg>
