<svg width="20" height="21" viewBox="0 0 20 21" fill="none" xmlns="http://www.w3.org/2000/svg">
<path d="M10 13C11.3807 13 12.5 11.8807 12.5 10.5C12.5 9.11929 11.3807 8 10 8C8.61929 8 7.5 9.11929 7.5 10.5C7.5 11.8807 8.61929 13 10 13Z" stroke="#475569" stroke-width="1.2" stroke-miterlimit="10" stroke-linecap="round" stroke-linejoin="round"/>
<path d="M1.6665 11.2333V9.76666C1.6665 8.9 2.37484 8.18333 3.24984 8.18333C4.75817 8.18333 5.37484 7.11666 4.6165 5.80833C4.18317 5.05833 4.4415 4.08333 5.19984 3.65L6.6415 2.825C7.29984 2.43333 8.14984 2.66666 8.5415 3.325L8.63317 3.48333C9.38317 4.79166 10.6165 4.79166 11.3748 3.48333L11.4665 3.325C11.8582 2.66666 12.7082 2.43333 13.3665 2.825L14.8082 3.65C15.5665 4.08333 15.8248 5.05833 15.3915 5.80833C14.6332 7.11666 15.2498 8.18333 16.7582 8.18333C17.6248 8.18333 18.3415 8.89166 18.3415 9.76666V11.2333C18.3415 12.1 17.6332 12.8167 16.7582 12.8167C15.2498 12.8167 14.6332 13.8833 15.3915 15.1917C15.8248 15.95 15.5665 16.9167 14.8082 17.35L13.3665 18.175C12.7082 18.5667 11.8582 18.3333 11.4665 17.675L11.3748 17.5167C10.6248 16.2083 9.3915 16.2083 8.63317 17.5167L8.5415 17.675C8.14984 18.3333 7.29984 18.5667 6.6415 18.175L5.19984 17.35C4.4415 16.9167 4.18317 15.9417 4.6165 15.1917C5.37484 13.8833 4.75817 12.8167 3.24984 12.8167C2.37484 12.8167 1.6665 12.1 1.6665 11.2333Z" stroke="#475569" stroke-width="1.2" stroke-miterlimit="10" stroke-linecap="round" stroke-linejoin="round"/>
</svg>
