<svg width="11" height="11" viewBox="0 0 11 11" fill="none" xmlns="http://www.w3.org/2000/svg">
<path d="M7.5 2.40901H2.5C1 2.40901 0 3.13094 0 4.81543V8.18441C0 9.86891 1 10.5908 2.5 10.5908H7.5C9 10.5908 10 9.86891 10 8.18441V4.81543C10 3.13094 9 2.40901 7.5 2.40901ZM7.735 5.34003L6.17 6.54324C5.84 6.79832 5.42 6.92345 5 6.92345C4.58 6.92345 4.155 6.79832 3.83 6.54324L2.265 5.34003C2.105 5.21489 2.08 4.98388 2.205 4.82987C2.335 4.67586 2.57 4.64698 2.73 4.77211L4.295 5.97532C4.675 6.2689 5.32 6.2689 5.7 5.97532L7.265 4.77211C7.425 4.64698 7.665 4.67104 7.79 4.82987C7.92 4.98388 7.895 5.21489 7.735 5.34003Z" fill="url(#paint0_linear_319_501)"/>
<defs>
<linearGradient id="paint0_linear_319_501" x1="4.89583" y1="2.1168" x2="1.33911" y2="5.49794" gradientUnits="userSpaceOnUse">
<stop stop-color="#8C57EA"/>
<stop offset="1" stop-color="#5570E8"/>
</linearGradient>
</defs>
</svg>
